<?xml version="1.0" encoding="utf-8"?>
<!-- Generator: Adobe Illustrator 25.0.1, SVG Export Plug-In . SVG Version: 6.00 Build 0)  -->
<svg version="1.1" id="图层_1" xmlns="http://www.w3.org/2000/svg" xmlns:xlink="http://www.w3.org/1999/xlink" x="0px" y="0px"
	 viewBox="0 0 135 36.6" style="enable-background:new 0 0 135 36.6;" xml:space="preserve">
<style type="text/css">
	.st0{fill:#FFFFFF;}
	.st1{filter:url(#Adobe_OpacityMaskFilter);}
	.st2{fill-rule:evenodd;clip-rule:evenodd;fill:#FFFFFF;}
	.st3{mask:url(#mask-2_1_);fill:#FFFFFF;}
	.st4{filter:url(#Adobe_OpacityMaskFilter_1_);}
	.st5{mask:url(#mask-4_1_);fill:#FFFFFF;}
	.st6{filter:url(#Adobe_OpacityMaskFilter_2_);}
	.st7{mask:url(#mask-6_1_);fill:#FFFFFF;}
	.st8{filter:url(#Adobe_OpacityMaskFilter_3_);}
	.st9{mask:url(#mask-8_1_);fill:#FFFFFF;}
	.st10{font-family:'PingFangSC-Semibold-GBpc-EUC-H';}
	.st11{font-size:18px;}
</style>
<g id="编组-8" transform="translate(16.000000, 24.000000)">
	<g id="编组-54备份" transform="translate(0.000000, -0.000000)">
		<g id="logo">
			<g id="编组">
				<path id="Fill-1" class="st0" d="M19.6-13C19.6-13,19.6-12.9,19.6-13c0,0.1,0,0.1,0.1,0.1c0,0,0,0,0.1,0c0,0,0.1,0,0.1,0
					c0,0,0.1,0,0.1-0.1c0,0,0,0,0-0.1c0,0,0,0,0,0c0,0,0,0,0,0c0,0,0,0,0-0.1l0,0c0,0,0-0.1,0-0.1c0,0,0,0,0,0c0,0,0,0,0-0.1
					c0,0,0,0,0,0c0,0,0-0.1,0-0.1c0,0,0,0,0,0c0,0,0,0,0,0c0,0-0.1,0-0.1,0c0,0,0,0-0.1,0c-0.1,0.1-0.1,0.1,0,0.2
					c0,0.1,0.1,0.1,0.1,0.1C19.6-13.1,19.6-13.1,19.6-13C19.6-13.1,19.6-13,19.6-13"/>
				<g id="Fill-3-Clipped" transform="translate(26.225352, 0.027476)">
					<g>
						<g id="path-5">
						</g>
						<defs>
							<filter id="Adobe_OpacityMaskFilter" filterUnits="userSpaceOnUse" x="-15.9" y="-24" width="9.6" height="10.4">
								<feColorMatrix  type="matrix" values="1 0 0 0 0  0 1 0 0 0  0 0 1 0 0  0 0 0 1 0"/>
							</filter>
						</defs>
						<mask maskUnits="userSpaceOnUse" x="-15.9" y="-24" width="9.6" height="10.4" id="mask-2_1_">
							<g class="st1">
								<polygon id="path-1_1_" class="st2" points="-15.9,-24 -6.3,-24 -6.3,-13.6 -15.9,-13.6 								"/>
							</g>
						</mask>
						<path id="Fill-3" class="st3" d="M-8.7-17.3C-8.7-17.4-8.7-17.4-8.7-17.3c0,0,0.1,0.1,0.1,0.2c0,0,0.1,0,0.2,0
							c0,0,0.1,0.1,0.1,0.1c0,0,0.1,0,0.1,0c0,0.1,0.1,0.1,0.2,0.1c0,0,0,0,0,0c0,0,0,0,0.1,0.1c0,0,0,0,0.1,0c0,0,0,0,0.1,0
							c0,0,0,0,0,0c-0.1,0-0.1,0-0.1,0.1c0,0,0,0.1,0,0.1c0,0,0,0,0,0c0,0-0.1,0-0.1,0c0,0-0.1,0-0.1,0l0,0c-0.1,0-0.2-0.1-0.2-0.1
							c0,0-0.1,0-0.1,0.1c0,0,0,0.1,0,0.1c0,0,0,0,0,0c0,0,0,0,0,0c0,0-0.1,0-0.1,0c0,0,0-0.1,0-0.1c0,0,0-0.1-0.1-0.1c0,0,0,0,0,0
							c0,0,0.1-0.1,0.1-0.1c0.1-0.1,0-0.2,0-0.2c0,0-0.1,0-0.1,0c0,0,0,0,0-0.1c0,0,0,0,0,0C-8.8-17.2-8.7-17.2-8.7-17.3
							C-8.7-17.3-8.7-17.3-8.7-17.3L-8.7-17.3z M-8-17.4C-8-17.4-8-17.4-8-17.4c0,0,0,0.1,0,0.2c0,0,0,0,0,0.1c0,0,0,0,0,0
							c0,0-0.1,0-0.1,0c0,0,0,0,0-0.1C-8.1-17.4-8-17.4-8-17.4L-8-17.4z M-7.8-16.5C-7.8-16.5-7.7-16.5-7.8-16.5
							c0.1,0,0.1-0.1,0.1-0.1c0,0,0,0,0-0.1c0,0,0.1-0.1,0.1-0.1c0,0,0,0,0-0.1c0,0,0,0,0,0c0,0,0,0,0,0.1c0,0,0.1,0.1,0.1,0.1
							c0.1,0,0.1,0.1,0.1,0.1c0,0,0,0.1,0,0.1c0,0,0.1,0,0.1,0c0,0,0,0,0,0c0,0,0,0.1,0,0.1c0,0,0,0,0.1,0c0,0,0.1,0,0.1,0
							c0,0,0,0,0,0c0,0,0.1,0.1,0.1,0.1c0,0-0.1,0-0.1,0c0,0,0,0,0,0.1c0-0.1,0-0.1-0.1-0.2c0,0-0.1,0-0.1,0c0,0-0.1,0-0.1,0.1
							s0,0.1,0.1,0.1c0,0,0,0,0,0c0,0,0,0.1,0.1,0.1c0,0,0,0,0,0c0,0,0,0,0.1,0c0,0,0.1,0,0.1-0.1c0,0,0,0,0,0c0,0,0.1,0.1,0.1,0.1
							c0,0,0,0,0,0c0,0,0,0,0,0c0,0,0,0-0.1,0c0,0,0,0-0.1,0.1c0,0,0,0,0,0c0,0-0.1,0-0.1,0.1c0,0,0,0,0,0c0,0,0,0,0,0
							c-0.1,0-0.1,0.1-0.1,0.1c0,0,0,0,0,0.1h0c0,0,0,0-0.1,0c0,0,0,0-0.1-0.1c0,0,0,0,0,0c0,0,0,0,0-0.1c0,0,0-0.1-0.1-0.1
							c0,0,0,0,0,0c0,0,0,0,0,0c0,0,0,0,0,0c0,0,0,0,0,0c0,0,0.1,0,0.1,0c0.1-0.1,0.1-0.2,0.1-0.3c0-0.1-0.1-0.2-0.2-0.2
							c0,0,0,0,0,0c0,0,0,0,0,0c0,0-0.1,0-0.1,0c0,0,0-0.1,0-0.1c0,0,0,0,0,0c0,0,0,0,0-0.1c-0.1,0-0.1,0-0.2,0c0,0,0,0,0,0
							c0,0,0.1,0,0.1,0C-7.9-16.4-7.9-16.4-7.8-16.5C-7.8-16.4-7.8-16.4-7.8-16.5C-7.8-16.4-7.8-16.5-7.8-16.5L-7.8-16.5z
							 M-7.7-17.8C-7.7-17.8-7.7-17.8-7.7-17.8C-7.7-17.8-7.7-17.8-7.7-17.8C-7.7-17.8-7.7-17.8-7.7-17.8
							C-7.7-17.8-7.7-17.8-7.7-17.8C-7.7-17.8-7.7-17.8-7.7-17.8L-7.7-17.8z M-7.2-17.8C-7.2-17.8-7.2-17.8-7.2-17.8
							c0.1,0.1,0.1,0.1,0.2,0.2c0,0,0,0,0,0c0,0,0,0,0,0C-7.1-17.7-7.1-17.7-7.2-17.8C-7.2-17.7-7.2-17.8-7.2-17.8L-7.2-17.8z
							 M-7.5-14.1L-7.5-14.1L-7.5-14.1C-7.4-14.1-7.4-14.1-7.5-14.1L-7.5-14.1z M-6.8-15.7L-6.8-15.7C-6.8-15.7-6.8-15.7-6.8-15.7
							C-6.7-15.7-6.7-15.6-6.8-15.7C-6.7-15.6-6.7-15.6-6.8-15.7C-6.8-15.6-6.8-15.6-6.8-15.7C-6.8-15.7-6.8-15.7-6.8-15.7
							L-6.8-15.7z M-6.7-15.9C-6.7-15.9-6.7-15.9-6.7-15.9C-6.7-15.9-6.7-15.9-6.7-15.9C-6.7-15.9-6.7-15.9-6.7-15.9
							C-6.7-15.8-6.7-15.8-6.7-15.9C-6.7-15.9-6.7-15.9-6.7-15.9C-6.8-15.9-6.8-15.9-6.7-15.9C-6.8-15.9-6.7-15.9-6.7-15.9
							L-6.7-15.9z M-13-17.1c0.2,0.1,0.5,0.2,0.7,0.3c0,0,0,0,0,0c0,0,0,0,0,0l0.5,0.3c0,0,0,0,0,0c0,0,0,0,0,0l0.2,0.1c0,0,0,0,0,0
							c0,0,0,0,0,0c0,0,0,0,0.1,0c0,0,0,0.1,0.1,0.1l0,0c0,0,0,0,0,0c0,0,0,0,0,0c0,0,0,0,0,0c0.2,0.1,0.3,0.2,0.5,0.2c0,0,0,0,0,0
							l0,0c0,0,0,0,0,0c0.2,0.1,0.4,0.2,0.5,0.3c0,0,0,0,0,0c0,0,0,0,0,0l0,0c0,0,0,0,0,0c0,0,0,0,0,0l0.1,0c0,0,0,0,0,0
							c0,0,0,0,0,0l0,0c0,0,0,0,0,0l0,0c0,0,0,0,0,0c1.1,0.5,1.7,0.9,2.2,1.3c0,0,0,0,0.1,0c0,0,0,0,0,0l0,0c0,0,0,0,0.1,0
							c0,0,0,0,0,0c0,0,0,0,0,0c0,0,0,0.1,0,0.1c0,0,0,0,0,0l0,0c0,0,0,0,0,0c0,0,0,0,0,0l0,0c0,0,0,0,0,0c0,0,0,0,0,0l0,0
							c0,0,0,0,0,0h0c0,0,0,0,0,0l0,0c0,0,0,0,0.1,0c0,0,0,0,0,0c0,0,0,0,0,0c0,0,0,0.1,0,0.1c0,0,0,0,0.1,0c0,0,0,0,0,0
							c0,0,0.1,0,0.1-0.1c0,0,0-0.1,0.1-0.1c0,0,0,0,0.1-0.1c0,0,0,0,0,0c0,0,0,0.1,0.1,0.1c0,0,0,0,0.1,0c0,0,0,0,0,0
							c0,0,0.1,0,0.1,0c0,0,0-0.1,0.1-0.1c0,0,0,0,0-0.1c0,0,0-0.1,0-0.1c0,0,0,0,0,0c0,0,0,0,0,0c0-0.1,0-0.2,0-0.3c0,0,0,0,0,0
							c0,0,0,0,0,0c0-0.1,0-0.1,0-0.2c0,0,0,0,0-0.1c0,0,0,0,0-0.1l0-0.1c0,0,0,0,0-0.1c0,0,0,0,0-0.1c0-0.1,0-0.3,0-0.4
							c0,0,0,0,0,0c0,0,0,0,0,0l0-0.1c0,0,0,0,0-0.1l0,0c0,0,0,0,0,0c0,0,0,0,0-0.1c0,0,0-0.1-0.1-0.1c0,0-0.1,0-0.1,0
							c0,0,0-0.1,0-0.1c0,0,0,0-0.1,0c0,0,0,0,0,0c0,0,0,0,0,0c0,0,0,0,0,0c0,0,0,0,0,0c0,0,0,0,0,0c0,0,0,0,0.1,0c0,0,0,0,0-0.1
							c0-0.3-0.1-0.7-0.2-1c0,0,0-0.1-0.1-0.1c0,0,0,0,0,0c0,0,0,0,0,0c0,0,0,0,0,0c0,0,0-0.1,0-0.1c0,0,0-0.1,0-0.1
							c0,0,0-0.1-0.1-0.1c0,0-0.1,0-0.1,0l0,0c0,0-0.1,0.1,0,0.1c0,0,0,0,0,0l0,0l0,0c0,0,0,0-0.1,0c0,0,0,0,0,0.1c0,0,0,0,0,0
							c0,0,0,0,0,0c0,0,0,0,0-0.1c0,0,0-0.1-0.1-0.1l0,0c0,0,0,0,0,0c0,0,0-0.1,0-0.1c0,0,0,0,0,0c0,0,0,0,0,0c0,0,0-0.1,0-0.1
							c0,0,0,0,0,0c0,0,0,0,0,0c0,0,0,0,0.1-0.1c0,0,0-0.1,0-0.1c0,0,0,0,0,0c0,0,0,0,0,0c0,0,0-0.1,0-0.1c0-0.1-0.1-0.2-0.1-0.3
							c0,0-0.1-0.1-0.1-0.1c0-0.1,0-0.1-0.1-0.2c0,0-0.1,0-0.1,0c0,0,0,0-0.1,0h0c0,0-0.1,0-0.1,0.1c0,0,0,0,0,0.1c0,0,0,0,0,0
							c0,0,0,0-0.1,0c0,0,0-0.1,0-0.1c0,0,0,0,0,0c0,0,0,0,0,0c0,0,0-0.1,0-0.1c0,0,0,0,0-0.1c0,0,0.1,0,0.1,0c0,0,0,0,0,0.1
							c0,0,0.1,0,0.1,0.1c0,0,0,0,0.1,0c0,0,0,0,0.1,0c0,0,0-0.1,0-0.1c0-0.1-0.1-0.2-0.2-0.2c0,0,0,0,0,0c0,0,0,0,0,0
							c0,0,0,0,0-0.1c0,0,0,0,0,0c0,0,0,0,0,0c0,0,0,0,0-0.1c0,0,0,0,0,0c0,0,0,0-0.1,0c0,0,0,0,0,0c0,0,0,0-0.1-0.1c0,0,0,0,0,0
							c0,0,0-0.1,0-0.1c0,0-0.1-0.1-0.1-0.1c0,0-0.1,0-0.1,0c0,0,0-0.1,0-0.1c-0.1-0.1-0.2-0.2-0.3-0.3c0,0,0,0,0,0c0,0,0,0,0,0
							c0,0-0.1-0.1-0.1-0.1c0,0,0,0-0.1,0c0,0,0,0,0,0c0,0-0.1,0-0.1-0.1c0,0,0,0-0.1,0c0,0,0,0,0-0.1c0,0-0.1-0.1-0.1-0.1
							c-0.1,0-0.1-0.1-0.2-0.1l0,0c0,0,0,0,0,0c0,0,0,0,0,0c-1.1-0.6-2.1-1.1-3-1.4c-1.6-0.7-2.7-1.2-3.3-2.3c0,0-0.1-0.1-0.1,0
							c0,0-0.1,0-0.1,0.1c0,0.1-0.4,1.2-0.3,2.7C-15.8-19.9-15.2-18.1-13-17.1L-13-17.1z"/>
					</g>
				</g>
				<path id="Fill-5" class="st0" d="M16.1-0.8c0.1,0,0.1,0,0.1,0c0,0,0,0,0,0c0,0,0,0,0,0C16.1-0.7,16.1-0.7,16.1-0.8
					C16.1-0.7,16.1-0.7,16.1-0.8C16.1-0.7,16-0.8,16.1-0.8C16-0.8,16-0.8,16.1-0.8C16-0.8,16-0.8,16.1-0.8 M15.7-0.9
					c0,0-0.1,0.1-0.1,0.1c0,0.1,0.1,0.2,0.1,0.2c0,0,0.1,0.1,0.1,0.2c0,0,0,0.1,0.1,0.1c0,0,0,0,0,0c0,0,0.1,0,0.1,0c0,0,0,0,0,0
					c0,0,0.1-0.1,0.1-0.2c0.1,0.1,0.2,0.1,0.3,0.1c0,0,0,0,0,0c0,0,0.1,0,0.1-0.1c0.1-0.2-0.1-0.5-0.3-0.7c-0.2-0.2-0.3-0.1-0.3-0.1
					C16-1.2,15.9-1.1,16-0.9c0,0,0,0,0,0.1C15.9-0.9,15.9-1,15.7-0.9"/>
				<path id="Fill-7" class="st0" d="M17.4-4.7c-0.1,0-0.2,0-0.3,0.2c0,0.1,0,0.2,0.1,0.2c0,0,0,0,0.1,0c0,0,0,0,0,0
					c0,0,0.1,0,0.1-0.1c0,0,0,0,0.1-0.1c0.1,0,0.1-0.1,0.1-0.1C17.6-4.6,17.5-4.6,17.4-4.7C17.5-4.7,17.4-4.7,17.4-4.7"/>
				<path id="Fill-9" class="st0" d="M17.6-5.2C17.6-5.2,17.6-5.2,17.6-5.2c0,0.1,0,0.1,0,0.1c0,0,0.1,0.1,0.1,0.1
					c0,0,0.1,0.1,0.1,0.1c0,0,0,0,0.1,0h0c0.1,0,0.1,0,0.2-0.1c0-0.1,0-0.2,0-0.3c0,0,0,0-0.1,0c0,0,0,0-0.1,0c0,0,0,0,0,0
					c0,0,0,0,0,0C17.8-5.3,17.7-5.3,17.6-5.2"/>
				<path id="Fill-11" class="st0" d="M17.8-5.6C17.7-5.6,17.7-5.6,17.8-5.6l-0.1,0.1c0,0,0,0,0,0.1c0,0,0,0,0,0.1c0,0,0,0,0.1,0
					c0,0,0,0,0,0c0,0,0,0,0,0c0,0,0,0,0-0.1C17.9-5.4,17.9-5.5,17.8-5.6C17.8-5.6,17.8-5.6,17.8-5.6"/>
				<path id="Fill-13" class="st0" d="M20.3-9c0-0.1-0.1-0.2-0.2-0.2c0,0-0.1,0-0.1,0c-0.1,0.1,0,0.2,0,0.3c0,0,0,0.1,0,0.1
					c0,0,0,0.1,0.1,0.1c0,0,0.1,0,0.1,0c0.1,0,0.2,0,0.2-0.1c0,0,0-0.1,0-0.1c0,0,0-0.1-0.1-0.1C20.3-8.9,20.3-8.9,20.3-9"/>
				<path id="Fill-15" class="st0" d="M20.2-9.7c-0.2,0-0.2,0-0.4-0.1c0,0-0.1,0-0.1,0c0,0,0,0-0.1,0.1c0,0,0,0,0,0
					c0,0-0.1,0.1-0.1,0.2c0,0,0,0.1,0,0.1c0,0,0.1,0,0.1,0c0,0,0,0,0,0c0,0,0.1,0,0.1,0c0.1,0,0.1,0,0.2,0c0.1,0,0.1,0,0.2-0.1
					c0,0,0.1-0.1,0-0.2C20.3-9.7,20.3-9.7,20.2-9.7"/>
				<g id="Fill-17-Clipped" transform="translate(36.929577, 12.957533)">
					<g>
						<g id="path-7">
						</g>
						<defs>
							<filter id="Adobe_OpacityMaskFilter_1_" filterUnits="userSpaceOnUse" x="-15.7" y="-24.1" width="0.3" height="0.5">
								<feColorMatrix  type="matrix" values="1 0 0 0 0  0 1 0 0 0  0 0 1 0 0  0 0 0 1 0"/>
							</filter>
						</defs>
						<mask maskUnits="userSpaceOnUse" x="-15.7" y="-24.1" width="0.3" height="0.5" id="mask-4_1_">
							<g class="st4">
								<polygon id="path-3_1_" class="st2" points="-15.8,-24.2 -15.4,-24.2 -15.4,-23.7 -15.8,-23.7 								"/>
							</g>
						</mask>
						<path id="Fill-17" class="st5" d="M-15.5-23.7C-15.5-23.7-15.5-23.7-15.5-23.7C-15.4-23.7-15.4-23.7-15.5-23.7
							c0.1,0,0.1-0.1,0.1-0.1l0-0.1c0-0.1,0-0.1,0-0.2c0,0,0-0.1-0.1-0.1c0,0-0.1,0-0.1,0c0,0-0.1,0.1-0.1,0.2
							C-15.7-23.8-15.6-23.7-15.5-23.7"/>
					</g>
				</g>
				<path id="Fill-19" class="st0" d="M-12.5,5.2L-12.5,5.2l0.1,0L-12.5,5.2z M-11.8,5C-11.8,5-11.8,5-11.8,5C-11.9,5-11.9,5-11.9,5
					c0,0,0,0,0,0c0,0,0,0,0,0c0,0,0,0,0-0.1c0,0,0,0,0,0c0,0,0-0.1-0.1-0.1c0,0-0.1,0-0.1,0c0,0,0,0,0,0c0-0.1-0.1-0.1-0.1-0.1
					c0,0-0.1-0.1-0.1-0.1c-0.1,0-0.1,0.1-0.1,0.1c0,0,0,0-0.1,0.1c0,0-0.1,0.1-0.1,0.1c0,0,0,0.1,0,0.1c0,0.1,0.1,0.1,0.2,0.1l0,0
					c0,0,0,0.1,0.1,0.1c0,0,0,0,0,0c0,0,0,0,0.1,0c0,0,0,0,0-0.1c0,0,0,0,0,0.1c0,0,0,0,0,0.1c0,0.1,0.1,0.1,0.1,0.1c0,0,0,0,0,0
					c0,0,0,0,0,0c0,0,0,0.1,0,0.1c0,0.1,0.1,0.1,0.1,0.1c0,0,0,0,0,0c0.1,0,0.1-0.1,0.1-0.2l0,0c0,0,0.1-0.1,0.1-0.2
					C-11.7,5.1-11.7,5.1-11.8,5L-11.8,5z"/>
				<g id="Fill-21-Clipped" transform="translate(17.126761, 36.123885)">
					<g>
						<g id="path-9">
						</g>
						<defs>
							<filter id="Adobe_OpacityMaskFilter_2_" filterUnits="userSpaceOnUse" x="-15.6" y="-24.5" width="1" height="1">
								<feColorMatrix  type="matrix" values="1 0 0 0 0  0 1 0 0 0  0 0 1 0 0  0 0 0 1 0"/>
							</filter>
						</defs>
						<mask maskUnits="userSpaceOnUse" x="-15.6" y="-24.5" width="1" height="1" id="mask-6_1_">
							<g class="st6">
								<polygon id="path-5_2_" class="st2" points="-15.6,-24.5 -14.7,-24.5 -14.7,-23.5 -15.6,-23.5 								"/>
							</g>
						</mask>
						<path id="Fill-21" class="st7" d="M-14.7-24.4L-14.7-24.4L-14.7-24.4C-14.7-24.5-14.7-24.5-14.7-24.4L-14.7-24.4z M-14.6-24.4
							c0,0-0.1-0.1-0.1-0.1c0,0-0.1,0-0.1,0c0,0,0,0,0,0c0,0,0,0,0,0c-0.1,0-0.1,0-0.2,0c0,0,0,0,0,0c0,0-0.1,0.1-0.1,0.2
							c0,0,0,0.1,0,0.1c0,0,0,0,0,0c-0.1,0-0.1,0-0.1,0l0,0c0,0,0,0,0,0c0,0,0,0-0.1,0c0,0-0.1,0-0.1,0.1l-0.1,0.2c0,0,0,0.1,0,0.1
							c0,0,0,0.1,0,0.1c0,0,0.1,0,0.1,0c0,0,0,0,0,0c0,0,0,0,0,0c0,0,0.1,0.1,0.1,0.1h0l0.1,0c0,0,0.1,0,0.1-0.1c0,0,0-0.1,0-0.1
							c0-0.1,0-0.2,0.1-0.2c0,0,0-0.1,0-0.2c0,0,0,0,0-0.1c0,0,0,0,0,0c0,0,0,0,0,0c0,0,0.1,0,0.1,0c0,0,0.1,0,0.1-0.1
							c0,0,0,0.1,0,0.1c0,0,0,0,0,0c0,0.1,0.1,0.1,0.1,0.1h0c0,0,0.1,0,0.1-0.1l0-0.1C-14.5-24.3-14.5-24.3-14.6-24.4L-14.6-24.4z"
							/>
					</g>
				</g>
				<path id="Fill-23" class="st0" d="M-11.4,5.3l-0.1-0.2c0,0,0,0,0,0C-11.4,5.2-11.3,5.2-11.4,5.3C-11.3,5.3-11.4,5.3-11.4,5.3
					 M-10.9,5.4c0,0,0-0.1-0.1-0.1c0,0-0.1,0-0.2,0c0,0-0.1,0-0.1,0.1c0,0,0,0,0-0.1l0-0.1c0,0,0-0.1-0.1-0.1c0,0-0.1,0-0.1,0
					c-0.1,0-0.2,0.1-0.2,0.2c0,0.1,0,0.2,0.1,0.2c0,0,0.1,0,0.1,0c0,0,0.1,0,0.1,0c0,0,0,0.1,0,0.1c0,0.1,0.1,0.2,0.1,0.2
					c0,0,0.1,0,0.1,0c0.1,0,0.2,0,0.2-0.1C-10.8,5.6-10.8,5.5-10.9,5.4C-10.9,5.4-10.9,5.4-10.9,5.4"/>
				<path id="Fill-25" class="st0" d="M1.7,11.6C1.7,11.6,1.7,11.6,1.7,11.6c0.1,0,0.1,0,0.2-0.1c0,0,0-0.1,0-0.1
					c-0.1-0.1-0.1-0.1-0.2-0.1c0,0,0,0,0,0c0,0-0.1,0-0.1,0c0,0,0,0,0,0.1C1.5,11.5,1.6,11.6,1.7,11.6"/>
				<path id="Fill-27" class="st0" d="M-0.2,10.1C-0.1,10.1-0.1,10.1-0.2,10.1c0.1,0,0.1,0,0.1,0c0,0,0,0,0,0c0,0,0.1,0,0.1-0.1
					c0,0,0,0,0,0c0,0,0,0,0,0c0,0,0,0,0,0c0,0,0,0,0,0c0,0,0,0,0,0c0,0,0,0,0,0c0,0,0.1,0,0.1,0c0,0,0,0,0.1,0c0,0,0.1,0,0.1-0.1
					c0-0.1,0-0.2-0.1-0.2c0,0-0.1,0-0.2,0c0,0-0.1,0-0.1,0c0,0,0,0,0,0c0,0-0.1,0-0.1,0c0,0,0,0,0,0c0,0-0.1,0-0.1,0.1
					c0,0,0,0,0,0.1c0,0,0,0-0.1,0.1C-0.2,10-0.2,10-0.2,10.1C-0.2,10.1-0.2,10.1-0.2,10.1"/>
				<path id="Fill-29" class="st0" d="M-5.4,9.7c0-0.1-0.1-0.1-0.1-0.1c-0.1,0-0.1,0.1-0.1,0.1c0,0,0,0,0,0c0,0,0,0.1,0,0.1
					c0,0.1,0.1,0.1,0.1,0.1c0,0,0,0,0,0c0,0,0,0,0.1,0c0,0,0,0,0-0.1c0,0,0,0,0-0.1c0,0,0,0,0,0C-5.4,9.8-5.4,9.7-5.4,9.7"/>
				<path id="Fill-31" class="st0" d="M15.7-3.3C15.7-3.3,15.7-3.3,15.7-3.3C15.7-3.2,15.7-3.2,15.7-3.3c0.1,0.1,0.1,0.1,0.1,0
					c0,0,0.1-0.1,0.1-0.1c0-0.1-0.1-0.1-0.1-0.2l0,0c0,0-0.1,0-0.1,0c0,0,0,0-0.1,0l0,0c0,0,0,0.1,0,0.1c0,0-0.1,0-0.1,0
					c0,0-0.1,0.1-0.1,0.1l0,0c0,0,0,0,0,0c0,0,0,0,0,0c-0.1,0-0.1,0.1-0.2,0.1c0,0,0,0,0,0.1c0,0,0,0.1,0,0.1C15.1-3,15.2-3,15.2-3
					c0,0,0,0,0,0c0,0,0.1,0,0.1,0c0,0,0,0,0,0c0,0,0.1,0,0.1,0c0,0,0.1,0,0.1-0.1c0,0,0,0,0-0.1L15.7-3.3
					C15.6-3.3,15.6-3.3,15.7-3.3C15.6-3.3,15.7-3.3,15.7-3.3"/>
				<g id="Fill-33-Clipped" transform="translate(0.000000, 15.651295)">
					<g>
						<g id="path-11">
						</g>
						<defs>
							<filter id="Adobe_OpacityMaskFilter_3_" filterUnits="userSpaceOnUse" x="-16" y="-24.3" width="37.5" height="20.7">
								<feColorMatrix  type="matrix" values="1 0 0 0 0  0 1 0 0 0  0 0 1 0 0  0 0 0 1 0"/>
							</filter>
						</defs>
						<mask maskUnits="userSpaceOnUse" x="-16" y="-24.3" width="37.5" height="20.7" id="mask-8_1_">
							<g class="st8">
								<polygon id="path-7_2_" class="st2" points="-16,-24.3 21.5,-24.3 21.5,-3.6 -16,-3.6 								"/>
							</g>
						</mask>
						<path id="Fill-33" class="st9" d="M21.1-23C21.1-23,21.1-23,21.1-23C21.1-23,21-23,21.1-23C21-23,21.1-23,21.1-23
							C21.1-23,21.1-23,21.1-23L21.1-23z M21-21.8C21-21.8,21-21.8,21-21.8C21-21.8,21-21.8,21-21.8L21-21.8z M20.8-20.3
							c0,0-0.1,0.1-0.2,0c0,0-0.1,0-0.1,0c0,0,0,0,0,0l0,0c0,0,0,0,0,0c0,0,0.1-0.1,0.1-0.1c0,0,0,0,0.1-0.1
							C20.6-20.4,20.7-20.4,20.8-20.3C20.7-20.4,20.8-20.4,20.8-20.3C20.8-20.4,20.8-20.3,20.8-20.3L20.8-20.3z M20.6-19.9
							c0,0.1,0,0.1,0,0.2c0,0,0,0,0,0.1c0,0-0.1,0-0.1,0C20.5-19.7,20.5-19.7,20.6-19.9c-0.1,0-0.1-0.1-0.1-0.1c0,0,0,0,0,0
							C20.6-20,20.6-20,20.6-19.9C20.6-19.9,20.6-19.9,20.6-19.9L20.6-19.9z M20-21.8c0,0,0-0.1,0-0.1c0,0,0.1,0.1,0.1,0.1
							C20.1-21.9,20-21.8,20-21.8L20-21.8z M19.9-21.1c0,0,0,0.1,0,0.1c0,0,0,0-0.1,0.1c0,0,0,0.1,0,0.1c0,0,0,0,0,0
							c0,0-0.1,0-0.1,0c0,0,0,0,0,0c0,0,0,0,0,0c0,0,0,0,0,0c0,0,0,0,0,0c0-0.1,0.1-0.1,0.1-0.2c0.1-0.1,0.1-0.2,0-0.2c0,0,0,0,0,0
							c0,0,0.1,0,0.1-0.1c0,0,0,0,0,0c0,0,0,0.1,0.1,0.1C20-21.2,19.9-21.2,19.9-21.1L19.9-21.1z M19.9-17.6
							C19.9-17.6,19.9-17.6,19.9-17.6C19.9-17.6,19.9-17.6,19.9-17.6C19.9-17.6,19.9-17.6,19.9-17.6C19.9-17.6,19.9-17.6,19.9-17.6
							L19.9-17.6z M19.8-17C19.8-17,19.8-17,19.8-17C19.8-17,19.8-17,19.8-17C19.8-17,19.8-17,19.8-17L19.8-17z M19.5-22.5
							L19.5-22.5c0-0.1,0-0.1,0-0.2c0,0,0,0,0-0.1l0,0C19.5-22.7,19.6-22.6,19.5-22.5L19.5-22.5z M19.4-16.8
							C19.4-16.8,19.4-16.8,19.4-16.8C19.4-16.8,19.4-16.8,19.4-16.8C19.4-16.8,19.4-16.8,19.4-16.8C19.4-16.9,19.4-16.9,19.4-16.8
							C19.4-16.9,19.4-16.8,19.4-16.8L19.4-16.8z M19.3-16.2C19.3-16.2,19.3-16.2,19.3-16.2c-0.1,0-0.1,0-0.1,0c0.1,0,0.1,0,0.2-0.1
							C19.3-16.3,19.3-16.3,19.3-16.2L19.3-16.2z M19.1-16.4L19.1-16.4L19.1-16.4C19.1-16.4,19.1-16.4,19.1-16.4L19.1-16.4z
							 M19.1-21C19.1-21.1,19.1-21.1,19.1-21C19.1-21.1,19.2-21.1,19.1-21C19.2-21,19.2-21,19.1-21C19.2-21,19.1-21,19.1-21L19.1-21
							z M19.1-22.4C19-22.4,19-22.4,19.1-22.4c-0.1,0-0.2,0-0.3-0.1c0,0,0,0,0,0c0,0,0,0,0,0c0.1,0,0.1-0.1,0.1-0.1
							c0-0.1,0.1-0.1,0.1-0.1c0,0,0,0,0,0c0,0,0,0,0,0.1C19.1-22.6,19.1-22.5,19.1-22.4C19.1-22.4,19.1-22.4,19.1-22.4L19.1-22.4z
							 M18.8-20.5c0,0,0,0.1,0,0.1C18.7-20.4,18.7-20.4,18.8-20.5C18.7-20.4,18.7-20.4,18.8-20.5C18.7-20.4,18.8-20.4,18.8-20.5
							C18.8-20.5,18.8-20.5,18.8-20.5C18.8-20.5,18.8-20.5,18.8-20.5L18.8-20.5z M18.9-17.3C19-17.4,19-17.4,18.9-17.3
							C19-17.4,19-17.3,18.9-17.3C19-17.3,19-17.3,18.9-17.3C19-17.3,19-17.3,18.9-17.3L18.9-17.3z M18-17.9c0,0,0-0.1,0-0.1
							c0,0,0,0,0.1,0c0,0,0,0,0,0C18.1-18,18-18,18-17.9L18-17.9z M17.8-17.6c0,0,0-0.1,0-0.1c0,0,0,0,0,0c0.1,0,0.1,0,0.1-0.1
							C17.9-17.7,17.9-17.7,17.8-17.6L17.8-17.6z M17.6-17.3C17.6-17.3,17.6-17.3,17.6-17.3c-0.2-0.2-0.2-0.3-0.2-0.4c0,0,0,0,0,0
							c0,0.1,0,0.1,0,0.2c0,0,0,0,0,0c0,0,0.1,0,0.1,0c0,0,0,0,0.1,0c0,0,0,0,0,0c0,0,0,0,0.1,0.1l0,0
							C17.6-17.4,17.6-17.3,17.6-17.3L17.6-17.3z M16.6-11.9C16.6-11.9,16.6-11.9,16.6-11.9c0-0.1,0-0.1,0-0.1
							C16.6-12,16.6-11.9,16.6-11.9C16.7-11.9,16.7-11.9,16.6-11.9C16.7-11.9,16.6-11.9,16.6-11.9L16.6-11.9z M16.5-11.6
							c0,0,0-0.1,0-0.1c0,0,0,0,0,0C16.6-11.7,16.6-11.6,16.5-11.6C16.6-11.6,16.6-11.6,16.5-11.6C16.6-11.6,16.6-11.6,16.5-11.6
							L16.5-11.6z M16.3-11.4C16.3-11.4,16.3-11.4,16.3-11.4c0,0.1,0,0.1-0.1,0.1c0-0.1-0.1-0.1-0.1-0.2
							C16.2-11.5,16.2-11.5,16.3-11.4C16.3-11.5,16.3-11.5,16.3-11.4C16.4-11.5,16.3-11.5,16.3-11.4L16.3-11.4z M15-10.5
							C15-10.5,15-10.5,15-10.5C15-10.4,15-10.4,15-10.5c-0.1,0.1-0.1,0.1-0.1,0C14.9-10.5,15-10.5,15-10.5C15-10.5,15-10.5,15-10.5
							L15-10.5z M14.9-16.1c0,0-0.1,0-0.1,0c-0.1,0-0.1,0.1-0.1,0.1c0,0,0,0,0,0c0,0-0.1,0-0.1,0c0,0,0,0.1,0,0.1c0,0,0,0.1,0.1,0.1
							c-0.1,0-0.2-0.1-0.3-0.1c0,0-0.1,0-0.1,0c-0.1,0.1-0.2,0.2-0.3,0.3c0,0,0,0,0,0c0,0,0,0,0,0c0-0.1-0.1-0.3-0.2-0.4
							c0,0-0.1-0.1-0.1-0.1c0,0,0,0,0,0c0,0,0,0,0,0c0-0.1,0-0.1,0.1-0.1c0,0,0,0,0,0.1c0,0,0,0.1,0,0.1c0,0,0.1,0.1,0.1,0.1
							C14-16.1,14-16,14.1-16h0c0,0,0.1,0,0.1,0c0,0,0.1-0.1,0.1-0.1c0-0.1,0-0.1-0.1-0.2c0,0,0,0,0,0c0,0,0,0,0,0
							c0.1,0,0.1,0,0.2,0.1c0,0,0,0,0.1,0c0,0,0.1,0,0.1,0c0.1-0.1,0.1-0.2,0.1-0.2c0,0,0-0.1,0-0.1c0.1,0.1,0.2,0.1,0.2,0.2
							c0,0,0,0.1,0,0.1c0,0.1,0.1,0.1,0.1,0.1C15-16.2,14.9-16.1,14.9-16.1C14.9-16.1,14.9-16.1,14.9-16.1L14.9-16.1z M13.8-15.5
							C13.8-15.5,13.8-15.5,13.8-15.5C13.8-15.5,13.8-15.5,13.8-15.5C13.8-15.5,13.8-15.5,13.8-15.5C13.8-15.5,13.8-15.5,13.8-15.5
							L13.8-15.5z M13.6-15.4C13.6-15.4,13.6-15.4,13.6-15.4C13.6-15.4,13.6-15.5,13.6-15.4c0-0.1,0.1,0,0.1,0
							C13.6-15.4,13.6-15.4,13.6-15.4L13.6-15.4z M13.4-16c0-0.1,0-0.2,0-0.2c0,0,0.1,0.1,0.2,0.1C13.5-16.1,13.5-16,13.4-16
							L13.4-16z M14.6-17c0,0,0.1,0,0.1,0C14.7-17.1,14.7-17,14.6-17C14.7-17,14.7-17,14.6-17C14.7-17,14.7-17,14.6-17
							C14.6-17,14.6-17,14.6-17C14.6-17,14.6-17,14.6-17L14.6-17z M13.1-16.5C13.1-16.5,13.1-16.5,13.1-16.5
							C13.1-16.5,13.1-16.5,13.1-16.5C13.1-16.6,13.1-16.6,13.1-16.5C13.1-16.5,13.1-16.5,13.1-16.5C13.1-16.5,13.1-16.5,13.1-16.5
							L13.1-16.5z M12.9-15.7c0,0,0.1,0,0.1,0c0,0,0,0.1,0,0.2c0,0,0,0,0,0C13-15.6,12.9-15.7,12.9-15.7L12.9-15.7z M8.1-5.1
							C8.1-5.1,8.1-5.1,8.1-5.1C8.1-5.1,8.1-5.1,8.1-5.1C8.1-5.1,8.1-5.1,8.1-5.1L8.1-5.1z M4.7-4.5C4.6-4.5,4.6-4.5,4.7-4.5
							C4.6-4.5,4.6-4.5,4.7-4.5c-0.1,0-0.1,0-0.2,0c0,0,0,0,0,0c0,0,0,0,0,0l0,0c0,0,0,0-0.1,0c0,0,0,0,0,0c0,0,0,0,0,0c0,0,0,0,0,0
							c0,0,0,0,0,0c0.1,0.1,0.2,0,0.2,0C4.6-4.6,4.6-4.6,4.7-4.5C4.6-4.6,4.6-4.6,4.7-4.5C4.7-4.6,4.6-4.6,4.7-4.5L4.7-4.5z M4-4.4
							C4-4.4,4-4.4,4-4.4C3.9-4.4,3.9-4.4,4-4.4C3.9-4.4,3.9-4.4,4-4.4c-0.1,0-0.1,0-0.1-0.1l0,0c0,0,0,0-0.1,0c0,0,0,0-0.1,0l0,0.1
							c0,0,0,0,0,0c0,0,0,0,0,0c0,0-0.1,0-0.1,0c0,0,0,0,0,0c0,0,0,0,0,0c0,0,0,0,0,0c0,0,0-0.1,0-0.1c0,0-0.1-0.1-0.1,0
							c0,0-0.1,0-0.1,0.1c0,0,0,0-0.1,0c0,0,0,0-0.1,0c0,0,0,0.1,0,0.1c0,0,0,0,0,0c0,0,0,0,0,0c0,0-0.1,0-0.1,0c0,0-0.1,0-0.1,0
							c0,0,0,0,0,0c0,0-0.1,0-0.1,0c0,0,0,0,0,0c0,0,0-0.1,0-0.1c0,0,0.1,0,0.1,0c0,0,0,0,0-0.1c0,0,0,0,0,0c0,0,0,0,0,0
							c0,0,0.1,0,0.1-0.1c0.2,0,0.5,0,0.7,0c0.1,0,0.1,0,0.2,0c0,0,0,0.1,0,0.1c0,0,0,0,0.1,0c0,0,0,0,0,0c0,0,0,0,0,0c0,0,0,0,0,0
							C4-4.6,4-4.6,4-4.4C4-4.5,4-4.5,4-4.4C4-4.5,4-4.5,4-4.4L4-4.4z M3.2-4.2C3.2-4.2,3.2-4.2,3.2-4.2L3.2-4.2L3.2-4.2z M2.6-5.6
							C2.6-5.6,2.6-5.6,2.6-5.6C2.6-5.6,2.6-5.6,2.6-5.6C2.6-5.6,2.6-5.6,2.6-5.6C2.7-5.6,2.7-5.6,2.6-5.6C2.7-5.6,2.6-5.6,2.6-5.6
							L2.6-5.6z M1.8-5.5L1.8-5.5C1.8-5.5,1.8-5.5,1.8-5.5c-0.1,0-0.1,0-0.2,0c0,0,0,0,0,0c0,0,0,0,0,0c0,0,0,0,0,0
							C1.7-5.6,1.7-5.6,1.8-5.5C1.8-5.6,1.8-5.5,1.8-5.5C1.8-5.5,1.8-5.5,1.8-5.5L1.8-5.5z M1.5-5.5C1.5-5.5,1.5-5.5,1.5-5.5
							C1.5-5.5,1.5-5.5,1.5-5.5L1.5-5.5C1.5-5.5,1.6-5.5,1.5-5.5C1.6-5.5,1.6-5.5,1.5-5.5L1.5-5.5z M0.9-4.5
							C0.9-4.5,0.9-4.5,0.9-4.5L0.9-4.5C0.9-4.6,0.9-4.6,0.9-4.5C0.9-4.6,0.9-4.5,0.9-4.5L0.9-4.5z M0.2-4.5
							C0.2-4.5,0.2-4.5,0.2-4.5L0.2-4.5C0.2-4.5,0.2-4.5,0.2-4.5L0.2-4.5C0.2-4.5,0.2-4.5,0.2-4.5L0.2-4.5z M2.2-6.5L2.2-6.5
							C2.2-6.5,2.2-6.5,2.2-6.5C2.2-6.5,2.2-6.5,2.2-6.5C2.2-6.5,2.2-6.5,2.2-6.5C2.2-6.5,2.2-6.5,2.2-6.5L2.2-6.5z M0.2-7.4
							C0.2-7.4,0.1-7.4,0.2-7.4C0.1-7.4,0.1-7.4,0.2-7.4C0.1-7.4,0.2-7.4,0.2-7.4C0.2-7.4,0.2-7.4,0.2-7.4L0.2-7.4
							C0.2-7.4,0.2-7.4,0.2-7.4L0.2-7.4z M-1.2-8.1C-1.2-8.1-1.2-8.1-1.2-8.1C-1.2-8.1-1.2-8.1-1.2-8.1C-1.2-8.1-1.2-8.1-1.2-8.1
							C-1.2-8.1-1.2-8.1-1.2-8.1C-1.2-8.1-1.1-8.1-1.2-8.1L-1.2-8.1z M-1.3-8C-1.3-8-1.3-8-1.3-8C-1.3-8-1.3-8-1.3-8
							C-1.3-8-1.3-8-1.3-8C-1.3-8-1.3-8-1.3-8C-1.3-8-1.3-8-1.3-8L-1.3-8z M-2.1-8.1C-2.1-8.1-2.2-8.1-2.1-8.1L-2.1-8.1
							C-2.2-8.2-2.2-8.2-2.1-8.1L-2.1-8.1C-2.1-8.2-2.1-8.2-2.1-8.1L-2.1-8.1z M-3.5-8.3C-3.5-8.3-3.5-8.3-3.5-8.3
							C-3.5-8.3-3.5-8.3-3.5-8.3C-3.5-8.3-3.5-8.3-3.5-8.3L-3.5-8.3L-3.5-8.3L-3.5-8.3L-3.5-8.3C-3.4-8.3-3.4-8.3-3.5-8.3L-3.5-8.3z
							 M-10.2-10.1C-10.2-10.1-10.2-10.1-10.2-10.1L-10.2-10.1C-10.2-10.1-10.2-10.1-10.2-10.1C-10.2-10.1-10.2-10.1-10.2-10.1
							C-10.2-10.1-10.2-10.1-10.2-10.1L-10.2-10.1z M21.5-23.1C21.5-23.1,21.5-23.1,21.5-23.1C21.4-23.2,21.4-23.2,21.5-23.1
							c-0.1-0.1-0.2-0.1-0.2-0.1c0-0.1-0.1-0.2-0.2-0.3c0.1,0,0.1,0,0.2-0.1c0,0,0.1-0.1,0.1-0.2c0,0,0-0.1,0-0.1c0,0-0.1,0-0.1,0
							c-0.2,0.1-0.5,0.1-0.7-0.1c0,0-0.1,0-0.1,0c0,0,0,0.1,0,0.1c0.2,0.2,0.2,0.3,0.2,0.3c0,0-0.1,0-0.3-0.1c0,0,0,0,0,0
							c-0.1,0-0.1,0-0.1,0.1c0-0.1,0.1-0.2,0.1-0.3c0,0,0-0.1,0-0.1c0,0,0,0-0.1-0.1c-0.1,0-0.1-0.1-0.1-0.1c0-0.1,0.1-0.2-0.1-0.3
							c0,0-0.1,0-0.1,0c-0.1,0.1-0.1,0.2-0.1,0.3c0,0,0,0.1,0,0.1c0,0-0.1,0-0.1-0.1c0,0-0.1,0-0.1,0c0,0,0,0,0,0.1
							c0,0.1,0,0.1,0,0.2c0,0,0,0.1,0,0.1c0,0,0,0-0.1,0c-0.1,0-0.2,0-0.2,0.1c0,0,0,0.1,0,0.1c0,0.1-0.1,0.3-0.2,0.5c0,0,0,0,0,0
							c0,0,0,0-0.1-0.1C19-23,19-23,18.8-23c0,0-0.1,0-0.1,0c0,0,0,0.1-0.1,0.1c0,0,0,0.1,0,0.1c0,0,0,0,0,0c0,0-0.1,0-0.1,0.1
							c0,0,0,0,0,0c0,0,0,0,0,0c0,0-0.1,0-0.1,0c0,0.1-0.1,0.1,0,0.1c0,0-0.1,0-0.1,0c-0.1,0.1-0.1,0.2-0.2,0.3c0,0,0,0,0,0.1
							c0,0,0,0,0,0c0,0-0.1,0-0.1,0c-0.1,0.1-0.1,0.2-0.2,0.3c0,0,0,0.1,0,0.1l0,0c0.1,0.1,0.2,0.1,0.3,0.1c0,0,0,0,0-0.1
							c0,0,0-0.1,0-0.1l-0.1,0c0.1-0.1,0.1-0.2,0.2-0.2c0,0,0,0,0,0c0.1,0,0.1,0.1,0.1,0.1c0,0,0,0,0,0c-0.1,0-0.1,0.1-0.2,0.2
							c0,0.1,0,0.2-0.1,0.2c-0.1-0.1-0.2-0.2-0.4-0.2c0,0-0.1,0-0.1,0c0,0,0,0,0,0.1l0,0c0,0,0,0.1,0,0.1c0,0,0,0,0.1,0
							c0.1,0,0.3,0.2,0.5,0.3c0,0,0.1,0.1,0.1,0.1c0,0-0.1,0-0.1-0.1c-0.1-0.1-0.1-0.1-0.2-0.1c0,0-0.1,0-0.1,0.1c0,0,0,0,0,0l0,0
							c0,0,0,0.1,0,0.1c0,0-0.1,0.1-0.1,0.1c0,0.1,0,0.2,0.2,0.3c0,0,0,0,0,0c0,0,0,0,0,0c0,0,0,0,0,0.1c0.1,0.1,0.2,0.1,0.3,0.1
							c0.1,0,0.2,0,0.3,0.1c0,0,0,0.1,0.1,0.1c0.1,0,0.1,0.1,0.1,0.1c0,0,0,0,0,0c0,0,0,0-0.1,0C19-19.7,19-19.6,19-19.6
							c0,0,0,0,0,0c-0.1,0-0.1,0-0.1,0c0,0,0,0,0,0c0,0,0,0,0,0c0,0-0.1,0-0.1,0c0,0,0,0.1,0,0.1c0,0.1,0,0.2-0.1,0.2c0,0,0,0-0.1,0
							c0-0.1,0-0.1-0.1-0.2c0,0-0.1-0.1-0.1-0.1c0,0,0,0,0,0c0,0,0,0,0-0.1c0,0,0-0.1,0-0.1c-0.2-0.1-0.3-0.1-0.5-0.1
							c-0.2,0-0.3,0.2-0.3,0.3c0,0,0,0.1,0.1,0.1c0,0,0.1,0,0.1,0c0,0,0,0,0,0c0,0,0,0,0,0.1c0,0,0,0,0,0c-0.1,0-0.2,0-0.2,0.1
							c0,0.1,0,0.1,0.1,0.3c0,0,0,0,0,0c0,0,0,0,0,0c0,0,0,0-0.1,0c0,0-0.1,0-0.1,0c0,0,0,0.1,0,0.1c0,0,0,0,0,0.1c0,0,0,0,0,0
							c0,0,0,0,0,0c0,0,0,0-0.1,0c0,0-0.1,0-0.1,0.1c-0.1,0.1-0.1,0.3,0,0.5c0,0.1,0.1,0.1,0.2,0.2c0,0,0,0,0,0c0,0,0,0,0,0
							c0-0.1-0.1-0.1-0.2-0.2c0,0,0,0-0.1,0c-0.1,0-0.1,0-0.2,0.1c0,0,0,0,0,0c0,0,0,0-0.1,0c0,0,0-0.1,0-0.1c0-0.1,0.1-0.2,0.1-0.3
							c0,0,0,0,0-0.1c0,0,0,0-0.1,0c0,0-0.1,0-0.1,0c0,0,0,0,0,0c0,0,0,0,0-0.1c0,0,0-0.1-0.1-0.1c0,0,0,0-0.1,0
							c-0.1,0-0.2-0.1-0.3-0.2c-0.1-0.1-0.2-0.1-0.3-0.2c0,0-0.1,0-0.1,0C16-19.2,16-19.1,16-19c0,0,0,0,0,0c0,0,0,0,0,0
							c0,0,0,0-0.1,0.1c0,0,0,0.1,0,0.1c0.1,0.1,0.2,0.1,0.3,0.1c0,0,0,0,0,0c0,0,0,0,0,0c0,0,0,0.1,0,0.1c0,0.1,0,0.2,0.1,0.2
							c0,0,0,0,0.1,0c0,0,0,0,0,0c0,0,0.1,0,0.1-0.1c0,0,0-0.1,0-0.1c0.1,0,0.1,0,0.2,0l0,0c0,0,0,0,0,0.1c-0.1,0.1,0,0.3,0.1,0.4
							l0,0c0,0,0,0,0,0.1c0,0,0,0,0,0.1l0.1,0.1c0,0,0.1,0,0.1,0c0,0,0,0,0,0c-0.2,0.1-0.2,0.4-0.2,0.5c0,0,0,0.1,0.1,0.1
							c0,0,0.1,0,0.1,0c0,0,0.1-0.1,0.1-0.1c0,0.1,0,0.1,0,0.1c0,0.1,0.1,0.1,0.2,0.1c0,0,0,0,0,0.1c0,0.1,0,0.2,0,0.2c0,0,0,0,0,0
							c0,0,0-0.1-0.1-0.1c0,0,0,0-0.1,0c0,0,0,0-0.1,0c0,0-0.1,0.1-0.1,0.2c0,0.1,0.1,0.1,0.1,0.2c0,0,0,0,0.1,0
							c0,0-0.1,0.1-0.1,0.1l-0.3-0.3c0,0-0.1,0-0.1,0c0,0-0.1,0-0.1,0.1c0,0.2,0,0.3,0,0.4c0,0,0,0.1,0,0.1c0,0,0,0,0,0
							c0,0-0.1-0.1-0.1,0c-0.1,0-0.1,0.1-0.2,0.2c0,0,0,0,0,0c0,0-0.1,0-0.1,0c0,0,0,0.1,0,0.1C16.1-16,16.1-16,16-16
							c-0.2-0.1-0.3-0.2-0.3-0.4c0,0,0-0.1,0-0.1l-0.1,0c-0.1-0.1-0.3-0.2-0.4-0.3c0,0-0.1,0-0.1,0c0,0,0,0.1,0,0.1
							c0.1,0.1,0.1,0.1,0,0.2c0-0.1-0.1-0.2-0.1-0.3c0-0.1-0.1-0.2-0.1-0.3c0,0,0,0-0.1-0.1c0,0,0.1,0,0.1,0l0,0
							c0.1,0,0.3,0,0.4-0.1c0.1-0.1,0.1-0.2,0-0.3c0,0,0,0,0,0h0c0.1,0,0.2,0,0.4-0.2c0,0,0-0.1,0-0.1L15.6-18c0,0,0,0,0,0
							c0.1,0,0.1,0,0.1,0c0.1,0,0.1-0.1,0.2-0.3c0,0,0,0,0,0c0.1,0,0.1-0.1,0.1-0.1c0-0.1,0-0.2,0-0.3c0,0,0,0-0.1,0c0,0,0,0-0.1,0
							c0,0,0,0-0.1,0c-0.1,0-0.2-0.1-0.3,0.1c0,0,0,0,0,0.1c0,0,0,0,0,0c0,0-0.1,0.1,0,0.1c0,0.1,0,0.1,0,0.1c0,0,0,0,0,0
							c0,0-0.1,0.1-0.1,0.2c0,0,0,0,0,0c-0.1,0-0.1,0-0.2,0c0,0,0,0,0,0c-0.1-0.1-0.2-0.3-0.3-0.5c0,0,0,0-0.1,0c0,0,0,0-0.1,0l0,0
							c-0.1,0-0.1,0.1-0.2,0.1c-0.4,0.2-0.8,0.4-1.2,0.6c0,0,0,0,0,0c0,0,0,0-0.1,0c-0.9,0.3-1.9,0.6-2.9,0.7c0,0,0,0,0,0
							c0,0,0,0,0,0c-0.4,0.1-0.8,0.1-1.2,0.1c0,0,0,0,0,0c0,0,0,0,0,0c0,0,0,0-0.1,0c-2.4,0.1-4.8-0.3-7-0.8c-0.2,0-0.4-0.1-0.7-0.1
							c0,0,0,0-0.1,0c0,0,0,0-0.1,0c-0.3-0.1-0.6-0.1-0.9-0.2c0,0,0,0,0,0c0,0,0,0,0,0l-0.2,0c0,0-0.1,0-0.1,0c0,0-0.1,0.1-0.1,0.2
							c0,0-0.1-0.1-0.2-0.1c0,0-0.1,0-0.1-0.1c-0.1,0-0.1-0.1-0.2,0c-0.1,0-0.1,0.1-0.2,0.2C-0.9-18.1-1-18.1-1-18.1
							c0,0-0.1,0-0.2,0.1c0,0-0.1-0.1-0.2-0.1c-0.1,0-0.2,0-0.2,0.1l0,0c0,0,0-0.1,0-0.1c0,0,0,0-0.1,0c-0.1,0-0.2,0.1-0.3,0.1
							c0,0,0,0-0.1-0.1c-0.1,0-0.1,0-0.2,0l0-0.2c0,0,0-0.1-0.1-0.1c-0.2,0-0.3,0-0.5,0c-0.1,0-0.3,0-0.4,0c0,0-0.1-0.1-0.2-0.2l0,0
							c0,0,0,0-0.1,0l-0.1,0c0,0-0.1,0-0.1,0l-0.1,0c0,0,0,0,0,0c0,0,0,0,0,0h0c0,0,0,0-0.1,0c0,0,0,0,0,0.1c0,0,0,0,0,0.1
							c-0.1,0-0.2-0.1-0.3-0.1l0,0c0,0,0,0,0,0c-0.1,0-0.3,0-0.4,0c0,0,0,0,0,0c0,0,0,0,0,0c-4.2,0.2-8,1.7-10.5,4.2
							c-0.6,0.6-0.9,1.1-0.9,1.8c0,0,0,0.1,0.1,0.1l0,0c0.2,0.1,0.3,0.1,0.5,0.2c0,0,0,0,0.1,0c0.1,0,0.1,0,0.2,0c0,0,0,0,0,0
							c0,0,0.1,0,0.1,0l0,0c0,0,0,0,0.1,0c0,0,0,0,0.1,0c0,0,0,0,0,0c0,0,0.1,0,0.1,0c0.1,0.1,0.2,0.1,0.4,0.1c0.1,0,0.2,0,0.3,0.1
							c0,0,0.1,0,0.1,0l0,0c0.8,0.3,1.6,0.5,2.3,0.7c0.9,0.3,1.7,0.5,2.5,0.8c0,0,0,0,0,0c0,0,0,0,0.1,0c0,0,0,0,0,0c0,0,0,0,0.1,0
							c0.1,0,0.2,0,0.3,0.1c0.1,0,0.1,0,0.2,0.1c0,0,0,0,0,0c0,0,0.1,0.1,0.1,0c0,0,0,0,0,0l0,0c0.2,0.1,0.4,0.1,0.6,0.2
							c0.2,0,0.4,0.1,0.6,0.2c0,0,0,0,0,0c0.2,0,0.3,0,0.5,0.1c0,0,0.1,0,0.1,0c0,0,0,0,0,0c0,0,0.1,0,0.1,0c0.1,0,0.1,0,0.2,0.1
							c0.1,0,0.1,0,0.1,0c0,0,0.1,0,0.1,0c0.1,0,0.2,0,0.3,0.1c0.1,0,0.2,0.1,0.3,0.1l0,0c0,0,0.1,0.1,0.1,0.1c0.1,0,0.1,0,0.2,0
							c0.1,0,0.2,0.1,0.3,0.1c0,0,0.1,0,0.1,0c0,0,0,0,0.1,0c0,0,0.1,0,0.1,0c0,0,0.1,0,0.1,0c0,0,0,0,0,0c0,0,0.1,0,0.1,0
							C-4.2-9-4.1-9-4-9C-4-9-3.9-9-3.8-9c0.1,0,0.1,0,0.2,0c0,0,0.1,0,0.1,0c0.2,0,0.3,0.1,0.5,0.1c0,0,0.1,0,0.1,0
							c0.1,0.1,0.3,0.1,0.5,0.1l0,0c0,0,0,0,0.1,0c0,0,0.1,0,0.1,0c0,0,0,0,0.1,0c0,0,0.1,0,0.1,0c0,0,0.1,0,0.1,0
							c0.2,0,0.3,0,0.5,0.1c0,0,0.1,0,0.1,0c0.1,0.1,0.3,0.1,0.4,0.1c0,0,0.1,0,0.1,0c0,0,0,0,0,0.1c0,0,0.1,0,0.1,0
							c0,0,0.1,0,0.1-0.1c0,0,0,0,0,0c0,0,0,0,0,0c0,0,0.1,0,0.1,0c0,0,0,0,0,0c0,0,0,0,0.1,0c0,0,0.1,0,0.1,0c0,0,0,0,0.1,0
							c0,0,0,0,0,0.1c0,0.1,0.1,0.1,0.1,0.1h0c0.1,0,0.1,0,0.1-0.1c0,0,0.1,0,0.1,0c0,0,0,0,0.1,0c0,0,0,0,0.1,0c0,0,0.1,0,0.1,0
							c0,0,0,0,0,0c0,0,0,0,0,0c0,0,0,0,0,0c0.1,0,0.1,0,0.2,0c0,0,0,0.1,0.1,0.1c0,0,0.1,0,0.1,0c0,0,0,0,0,0c0,0,0.1,0.1,0.1,0.1
							c0,0,0,0,0,0c0,0,0,0,0,0c0,0,0,0,0.1,0c0,0,0,0,0,0c0,0,0,0,0,0h0c0,0,0.1,0,0.1,0c0,0,0,0,0,0c0,0,0.1,0,0.1,0
							c0,0,0.1,0,0.1,0c0.1,0,0.1,0,0.2,0c0,0,0,0,0,0c0,0,0,0,0.1,0c0.1,0,0.2,0,0.3,0c0,0,0,0,0,0c0.1,0,0.2,0,0.3,0c0,0,0,0,0,0
							c0,0,0.1,0,0.1,0c0,0,0,0,0,0c0,0,0,0,0,0c0,0,0,0,0,0c0,0,0,0,0,0c0,0,0,0,0.1,0c0,0,0.1,0,0.2,0c0,0,0,0,0,0c0,0,0,0,0.1,0
							c0,0,0.1,0,0.1-0.1c0,0,0,0,0,0c0,0,0,0,0,0c0,0,0,0,0,0.1l0,0c0,0,0,0-0.1,0c0,0-0.1,0-0.1,0c0,0,0,0,0,0c0,0,0,0,0,0
							c0,0,0,0-0.1,0c0,0-0.1,0-0.1,0c0,0,0,0-0.1,0c0,0-0.1,0-0.1,0c0,0,0,0-0.1,0c0,0,0,0,0,0c0,0,0,0,0,0c0,0,0,0,0,0
							c0,0,0,0-0.1,0c0,0,0,0-0.1,0c0,0,0,0,0,0c0,0,0,0-0.1,0c0,0,0,0-0.1,0c0,0,0,0,0,0c0,0-0.1,0-0.1,0c0,0,0,0,0,0c0,0,0,0,0,0
							c0,0-0.1,0-0.1,0c0,0,0,0,0,0c0,0-0.1,0-0.1,0c0,0-0.1,0-0.1,0c0,0,0,0.1,0,0.1c0,0,0,0,0,0c0,0-0.1,0-0.2,0c0,0,0,0,0,0
							C0.9-8,0.9-8,0.8-8c0,0-0.1,0-0.1,0c0,0-0.1,0-0.1,0c0,0,0,0,0,0c0,0-0.1-0.1-0.2,0c0,0,0,0,0,0c0,0,0,0-0.1,0
							c0,0-0.1,0-0.1,0c0,0,0,0-0.1,0c0,0-0.1,0-0.1-0.1c0,0-0.1,0-0.1,0c0,0,0,0,0,0c0,0,0,0,0,0c0,0,0,0-0.1,0c0,0,0,0-0.1,0
							c0,0-0.1,0-0.1,0l0,0c0,0,0,0-0.1,0c0,0-0.1,0-0.1,0c0,0,0,0,0,0c0,0,0,0,0,0c0,0,0,0,0,0c0,0,0,0,0,0c0,0,0-0.1-0.1-0.1h0
							c0,0,0,0-0.1,0c0,0,0,0,0,0c0,0,0,0-0.1,0C-0.8-8.1-0.9-8-0.9-8c0,0,0,0,0,0.1c0,0,0,0,0,0c0,0,0,0,0-0.1C-0.9-8-1-8-1-8
							C-1-8-1-8-1-8c0,0,0,0,0,0c0,0,0,0,0,0c0,0,0,0,0,0c0-0.1-0.1-0.1-0.1-0.1c-0.1,0-0.1,0-0.1,0l0,0c0,0,0,0,0,0c0,0,0,0,0-0.1
							c0,0,0,0,0,0c0,0,0,0-0.1-0.1c0,0-0.1-0.1-0.1,0c0,0-0.1,0-0.1,0.1c0,0,0,0,0,0.1c-0.1,0-0.1-0.1-0.2,0c0,0,0,0,0,0.1
							c0,0,0,0,0,0.1c0,0,0,0,0,0c0,0-0.1,0-0.1,0c0,0,0,0,0,0c0,0,0-0.1,0-0.1c0,0,0,0,0,0c0,0,0,0,0,0c0,0-0.1,0-0.1,0
							c0,0-0.1,0-0.1,0.1c0,0,0,0,0,0.1c-0.1,0-0.2,0-0.2-0.1c0,0,0,0,0,0c0,0,0-0.1,0-0.1c-0.1-0.1-0.2-0.1-0.2-0.1
							c0,0-0.1,0-0.1,0.1c0,0,0,0.1,0,0.1c0,0,0,0-0.1,0c0,0-0.1,0-0.1,0c0,0-0.1,0-0.1,0c0,0,0,0-0.1,0c0,0-0.1,0-0.1,0
							c0,0,0,0-0.1,0c0,0-0.1,0-0.1,0c0,0,0-0.1,0-0.1c0,0-0.1-0.1-0.1-0.1c0,0,0,0-0.1,0c0,0,0,0,0,0c0,0-0.1-0.1-0.1-0.1
							c-0.1,0-0.1,0.1-0.1,0.2c0,0-0.1,0-0.1,0h0c0,0,0,0,0,0c0,0-0.1-0.1-0.1,0c-0.1,0-0.2,0-0.4,0c-0.1,0-0.2-0.1-0.3-0.1
							c0,0,0,0,0,0c0,0,0,0,0,0c0,0,0,0-0.1-0.1c0,0-0.1,0-0.1,0c0,0,0,0,0,0c-0.1,0-0.3-0.1-0.4-0.1c-0.2,0-0.4-0.1-0.5-0.1
							c0,0-0.1,0-0.1,0c0,0,0,0,0,0c0,0,0,0-0.1-0.1c0,0-0.1,0-0.1,0c0,0-0.1-0.1-0.1-0.1c0,0,0,0-0.1,0c0,0-0.1,0-0.2,0
							c0,0-0.1,0-0.1,0c0,0,0,0,0,0c0,0,0-0.1,0-0.1c0,0,0-0.1,0-0.1c0,0,0,0-0.1-0.1c0,0-0.1,0-0.1,0c-0.1,0-0.1,0.1-0.1,0.1
							c0,0,0,0-0.1,0c0,0,0,0-0.1-0.1c0,0,0,0-0.1,0c0,0,0,0,0,0c0,0-0.1,0-0.1,0c0,0,0,0,0,0c0,0,0,0,0,0c0,0,0,0,0,0
							c0,0,0-0.1-0.1-0.1c0,0-0.1,0-0.1,0c0,0,0,0,0,0c0,0,0,0-0.1,0c0,0,0,0,0,0c0,0-0.1,0-0.1,0c0,0,0,0,0,0c0,0-0.1,0-0.2,0
							c0,0-0.1,0-0.1,0c0,0,0,0-0.1,0c0,0,0,0,0,0c0,0-0.1-0.1-0.2-0.1c0,0,0,0,0,0c-0.1-0.1-0.2-0.1-0.3-0.1c-0.1,0-0.2,0-0.2-0.1
							c0,0,0,0,0,0c0,0,0,0,0,0c0,0-0.1,0-0.1,0c0,0-0.1,0-0.2,0c-0.1,0-0.1-0.1-0.2-0.1c0,0-0.1-0.1-0.1,0c-0.1,0-0.1,0-0.2-0.1
							c0,0,0,0,0,0c0,0,0,0-0.1,0c-0.1,0-0.1,0-0.2,0c0,0,0,0,0,0c0,0,0-0.1,0-0.1c0,0,0-0.1-0.1-0.1c0,0-0.1,0-0.1,0c0,0,0,0,0,0
							c0,0,0,0,0,0c0,0,0,0,0,0c0,0,0,0,0-0.1c0,0,0-0.1-0.1-0.1c0,0-0.1,0-0.1,0c0,0,0,0-0.1,0.1c0,0,0,0,0,0c0,0,0,0,0,0
							c0,0,0,0-0.1,0c0,0-0.1,0-0.1,0c0,0,0,0,0,0.1c0,0-0.1,0-0.1,0c-0.1,0-0.2-0.1-0.3-0.1c0,0-0.1,0-0.1,0c0,0-0.1,0-0.1,0
							c0,0,0,0,0,0c0,0,0,0-0.1,0c0,0,0,0-0.1,0.1c0,0.1,0,0.1,0,0.1c0,0.1,0.1,0,0.1,0c0,0,0,0,0,0c0,0,0,0,0,0c0,0,0,0,0.1,0.1
							c0.8,0.3,1.6,0.6,2.5,0.8l0.3,0.1L-7.8-9C-7.7-9-7.6-9-7.6-9c0.1,0,0.2,0.1,0.4,0.1l0.6,0.2C-6.4-8.6-6.2-8.6-6-8.5
							c1.5,0.4,3.1,0.7,4.8,1c0,0,0.1,0,0.1,0c0.1,0,0.2,0,0.2,0c0,0,0.1,0,0.1,0c0,0,0,0,0,0c0,0,0,0,0.1,0c0,0,0,0,0.1,0
							c0,0,0,0,0,0c0,0,0,0,0,0c0,0,0.1,0.1,0.2,0.1c0,0,0,0,0.1,0c0,0,0,0,0,0c0,0,0,0,0,0c0.1,0,0.1,0,0.2,0c0,0,0,0,0,0
							c0,0,0,0,0,0c0,0,0,0,0,0c0,0,0,0,0,0c0,0,0,0.1,0.1,0.1c0,0,0,0,0.1,0c0,0,0.1,0,0.1,0c0,0,0,0,0-0.1c0.1,0,0.1,0,0.2,0
							c0,0,0,0,0.1,0c0,0,0,0,0,0c0,0,0,0,0,0c0,0,0,0,0,0c0,0,0,0,0,0c0,0,0,0,0,0.1c0,0,0.1,0,0.1,0c0,0,0,0,0.1,0c0,0,0,0,0.1,0
							c0,0,0,0,0,0c0,0,0.1,0,0.1,0c0,0,0,0,0,0c0,0,0,0,0,0c0,0,0.1,0,0.1,0c0,0,0,0,0,0c0,0,0.1,0,0.1-0.1c0,0,0,0,0,0l0,0
							c0,0,0,0,0.1,0c0,0,0,0,0,0c0,0,0,0,0.1,0c0,0,0,0,0,0c0,0,0,0,0,0c0,0,0,0.1,0,0.1c0.1,0.1,0.1,0.1,0.2,0.1c0,0,0,0,0,0
							c0,0,0,0,0,0c0,0,0-0.1,0-0.1c0,0,0,0,0,0c0,0,0,0,0,0l0,0c0,0,0.1,0,0.1,0c0,0,0,0,0,0c0,0,0.1,0,0.1-0.1c0,0,0,0,0.1,0
							c0,0,0,0,0.1,0c0,0,0,0,0,0c0,0,0,0,0,0c0,0,0,0,0,0c0,0,0,0.1,0,0.1c0,0,0,0,0,0.1c0,0,0,0,0,0c0,0,0.1,0.1,0.1,0.1
							c0,0,0.1,0,0.1,0c0,0,0,0,0,0c0,0,0,0,0.1-0.1h0c0,0,0.1,0,0.1,0c0,0,0-0.1,0-0.1c0,0,0,0,0,0c0,0,0,0,0.1,0c0,0,0,0,0,0
							c0,0,0,0,0,0c0,0,0,0.1,0.1,0.1c0,0,0.1,0,0.1,0c0,0,0,0,0,0c0,0,0.1,0,0.1,0c0,0,0.1,0,0.1,0c0,0,0,0,0,0c0,0,0,0,0,0
							c0,0,0,0,0,0c0,0,0,0.1,0,0.1c0,0,0.1,0,0.1,0c0,0,0,0,0,0c0,0,0,0,0,0c0,0,0,0,0,0c0,0,0,0,0.1,0c0,0,0.1,0,0.1,0
							c0,0,0,0,0,0c0,0,0.1,0,0.1-0.1c0,0,0,0,0,0c0,0,0,0,0.1,0c0,0,0,0,0.1,0c0,0,0,0,0,0c0,0,0,0,0,0c0,0,0,0,0,0c0,0,0,0,0,0
							c0,0,0,0,0.1,0h0c0.1,0,0.1,0,0.1-0.1c0,0,0,0,0,0c0,0,0,0,0,0c0,0,0,0,0,0c0,0,0.1,0,0.1,0c0,0,0,0,0,0c0,0,0,0,0.1,0
							c0,0,0.1,0,0.1,0c0,0,0,0,0,0c0,0,0,0,0,0.1c0,0,0,0,0,0.1c0,0,0,0,0,0.1c0,0,0,0,0,0.1c0,0,0,0,0,0c-0.1,0-0.2,0-0.2,0
							c0,0,0,0,0,0c0,0,0,0-0.1,0c0,0-0.1,0-0.1,0.1c0,0,0,0,0,0.1c-0.1,0-0.1,0-0.2,0c0,0-0.1,0-0.1,0c0,0,0,0,0,0c0,0,0,0,0,0
							c0,0,0,0-0.1,0c0,0,0,0,0,0c0,0,0,0,0,0c-0.1,0-0.1,0.1-0.1,0.1c0,0,0,0,0,0c0,0-0.1,0-0.1,0c-0.1,0-0.2,0-0.2,0c0,0,0,0,0,0
							c0,0-0.1,0-0.1,0c0,0,0,0-0.1,0c0,0-0.1,0-0.1,0c0,0,0,0-0.1,0c0,0,0,0,0,0c0,0-0.1,0-0.1,0c0,0-0.1,0-0.1,0.1
							c0,0-0.1,0-0.1,0c0,0-0.1,0.1-0.1,0.1c0,0,0,0,0,0c0,0-0.1,0-0.1,0c0,0-0.1,0-0.1,0.1c0,0,0,0,0,0c0,0-0.1-0.1-0.2,0l0,0
							c0,0,0,0-0.1,0c0,0,0,0,0,0c0,0,0,0-0.1,0c0,0,0,0-0.1,0.1c0,0,0,0-0.1,0c0,0,0,0,0,0.1c0,0,0,0,0,0.1c0,0,0,0,0,0
							c0,0,0,0,0,0c0,0,0.1,0,0.1,0c0,0,0,0,0,0c0.1,0,0.2,0,0.2,0c0.1,0,0.1,0,0.1,0c0,0,0,0,0.1,0c0,0,0,0,0.1,0c0,0,0,0,0,0
							c0,0,0.1,0,0.2,0c0.1,0,0.2,0,0.2,0c0,0,0,0,0,0.1c0,0,0,0,0,0c0,0,0,0,0,0c0,0,0,0,0,0c0,0,0,0-0.1,0c0,0-0.1,0-0.1,0.1
							c0,0,0,0,0,0c0,0,0,0,0,0c0,0,0,0,0,0c0,0,0,0,0,0c0,0,0,0-0.1,0c0,0-0.1,0-0.1,0c0,0,0,0-0.1,0c-0.1,0-0.1,0-0.1,0
							c0,0,0,0,0,0c0,0,0,0,0,0c-0.1,0-0.1,0-0.2,0c0,0,0,0,0,0c0,0,0,0-0.1,0c0,0-0.1,0-0.1,0c0,0,0,0,0,0c0,0,0,0,0,0c0,0,0,0,0,0
							c0,0,0,0,0,0c0,0,0,0-0.1,0c0,0,0,0-0.1,0c0,0,0,0,0,0c0,0-0.1,0-0.1,0c0,0-0.1,0-0.1,0c0,0-0.1,0-0.1,0c0,0,0,0-0.1,0
							c0,0,0,0.1,0,0.1c0,0,0,0,0,0c0,0,0,0,0,0c0,0,0,0,0,0c0,0,0,0,0,0h0c0,0-0.1,0-0.1,0c0,0,0,0-0.1,0c0,0,0,0,0,0
							c0,0-0.1-0.1-0.1-0.1c0,0,0,0,0,0c0,0-0.1,0-0.1,0c0,0,0,0.1,0,0.1c0,0,0,0,0,0c0,0,0,0,0,0c0,0,0,0-0.1,0c0,0,0,0-0.1,0
							c0,0,0,0,0,0c0,0,0,0,0,0.1c0,0.1,0,0.1,0.1,0.1c0,0,0,0,0,0c0,0,0,0,0,0c0,0,0,0,0,0c0,0,0.1,0,0.1,0c0,0,0,0,0,0
							c0,0,0,0,0.1,0l0,0c0,0,0,0,0.1,0c0,0,0,0,0,0c0,0,0,0,0,0c0,0,0,0,0.1,0c0,0,0,0,0,0c0,0,0,0,0,0c0,0,0,0,0.1,0c0,0,0,0,0,0
							c0,0,0,0,0.1,0c0,0,0.1,0,0.1,0c0,0,0,0,0,0c0,0,0,0,0,0c0,0,0,0-0.1,0c-0.1,0-0.1,0-0.1,0c0,0,0,0,0,0c0,0,0,0-0.1,0
							c0,0-0.1,0-0.1,0c0,0-0.1,0-0.1,0c0,0-0.1,0-0.1,0c0,0,0,0,0,0c0,0-0.1-0.1-0.1,0c0,0,0,0-0.1,0c0,0,0,0,0,0c0,0-0.1,0-0.1,0
							c0,0,0,0-0.1,0c0,0-0.1,0-0.1,0c0,0,0,0,0,0c0,0,0,0,0,0c0,0-0.1,0-0.1,0c0,0,0,0-0.1,0c0,0-0.1,0-0.1,0c0,0,0,0,0,0
							c0,0-0.1,0-0.1,0.1c0,0,0,0,0,0c0,0,0,0,0,0c0,0,0,0,0,0c0,0,0,0,0,0c0,0,0,0,0,0c-0.1,0-0.2,0-0.2,0c0,0,0,0,0,0
							c0,0,0,0-0.1,0c-0.1,0-0.1,0-0.3,0c0,0,0,0-0.1,0c0,0-0.1,0-0.1,0.1c0,0-0.1,0-0.1,0c0,0,0,0,0,0c0,0,0-0.1-0.1-0.1
							c0,0,0,0,0,0c0,0,0,0,0,0c0,0,0-0.1-0.1-0.1c0,0-0.1,0-0.1,0c0,0,0,0-0.1,0.1c0,0,0,0,0,0l0,0c0,0,0,0,0,0c0,0,0,0,0,0
							c0,0,0,0-0.1,0c0,0,0,0-0.1,0c0,0-0.1,0-0.1,0c0,0,0,0-0.1,0c0,0,0,0,0,0c0,0,0,0,0,0c0,0,0,0,0,0c0,0-0.1,0-0.1,0
							c0,0,0,0,0-0.1c-0.1-0.1-0.2-0.1-0.2,0c0,0,0,0,0,0c0,0-0.1,0-0.1,0c0,0,0,0,0,0c0,0,0,0-0.1,0c0,0,0,0,0,0c0,0,0,0-0.1,0
							c0,0,0,0,0,0c-0.1-0.1-0.1-0.1-0.2-0.1c0,0-0.1,0-0.1,0c0,0-0.1,0-0.1,0c0,0,0,0,0,0c0,0,0,0,0,0c0,0,0,0,0,0c0,0,0,0,0,0
							c0-0.1-0.1-0.1-0.1-0.2c-0.1,0-0.2,0-0.2,0c0,0,0,0,0,0.1c0,0-0.1,0-0.2,0c0,0-0.1,0-0.1,0c0,0,0,0,0,0c0,0,0,0,0,0
							c0,0-0.1-0.1-0.1,0c0,0,0,0,0,0c0,0,0,0,0,0C-3.9-5.8-4-5.8-4-5.8h0h0c0,0,0,0,0,0c0,0-0.1-0.1-0.1,0l0,0c0,0-0.1,0-0.1,0.1
							c0-0.1-0.1-0.1-0.1-0.1c0,0,0,0,0,0c0,0,0,0,0,0c0,0,0,0-0.1,0c0,0,0,0-0.1,0c0,0,0,0-0.1,0c0,0-0.1,0-0.1,0c0,0,0,0,0-0.1
							c0,0-0.1,0-0.1,0c0,0,0,0,0,0c0,0-0.1,0-0.1,0c0,0,0,0,0,0c0,0-0.1,0-0.1,0.1c0,0,0,0,0,0.1C-5-5.6-5-5.6-5-5.6c0,0,0,0,0,0
							c0,0,0,0,0.1,0c0,0,0,0,0.1,0h0c0,0,0,0,0,0c0,0,0,0,0,0c0.2,0.1,0.3,0.1,0.5,0.1c0,0,0,0,0,0c0,0,0.1,0,0.1,0c0,0,0,0,0,0
							c0,0,0,0.1,0.1,0.1c0,0,0.1,0,0.1,0c0,0,0,0,0.1,0c0,0,0,0,0,0c0,0,0,0,0,0c0,0,0,0,0.1,0c0,0,0,0,0,0c0,0,0,0,0,0
							c0,0,0,0,0.1,0c0,0,0,0,0,0c0,0,0.1,0,0.1,0c0,0,0,0,0,0c0,0,0.1,0,0.1,0c0,0,0,0,0.1,0c0,0,0,0,0,0c0,0,0,0,0,0
							c0,0,0,0,0.1,0c0,0,0,0,0.1,0c0,0,0,0,0,0C-3.1-5.1-3-5-3-5c0,0,0,0,0,0c0,0,0,0,0,0c0,0,0,0.1,0.1,0.1c0,0,0.1,0,0.1,0
							c0-0.1,0.1-0.1,0.2,0c0,0,0.1,0,0.1,0c0,0,0,0,0,0c0,0,0,0,0,0c0.1,0,0.2,0,0.3,0c0,0,0,0,0,0c0,0,0,0.1,0,0.1
							C-2.1-4.8-2-4.8-2-4.8c0,0,0,0,0.1,0c0,0,0,0,0,0c0,0,0,0,0,0c0,0,0,0,0,0c0,0,0,0,0.1,0c0,0,0,0,0,0c0,0,0.1,0,0.1,0
							c0,0,0,0,0,0c0,0,0,0,0,0c0,0,0,0,0,0c0,0,0,0,0,0c0,0,0.1,0,0.1,0c0,0,0,0,0,0.1c0,0,0,0,0.1,0.1c0,0,0,0,0.1,0
							c0,0,0,0,0.1,0c0,0,0.1,0,0.2-0.1c0,0,0,0,0,0c0,0,0.1,0,0.1,0c0,0,0,0,0,0c0,0,0,0,0.1,0c0,0,0,0,0.1,0c0,0,0,0,0.1-0.1
							c0,0,0,0,0,0c0,0,0,0.1,0,0.1c0,0,0,0,0,0c0.1,0,0.1,0,0.2,0c0,0,0,0,0,0c0,0,0.1,0,0.1,0c0,0,0,0,0.1-0.1c0,0,0,0,0,0
							c0,0,0,0,0,0c0,0,0,0,0,0c0,0,0,0,0,0c0,0,0,0,0,0c0,0.1,0.1,0.1,0.1,0.2c0,0,0,0,0,0c0.1,0,0.1,0,0.1-0.1c0,0,0,0,0,0
							c0,0,0,0,0,0c0,0,0,0.1,0,0.1c0,0,0.1,0.1,0.1,0.1c0,0,0,0,0,0c0,0,0.1,0,0.1-0.1c0,0,0,0,0,0h0c0,0,0.1,0,0.1,0l0,0
							c0,0,0,0,0.1,0c0,0,0,0,0.1,0c0,0,0,0,0-0.1c0,0,0.1,0,0.1,0c0,0,0,0,0,0.1c0,0,0,0.1,0,0.1c0,0,0,0,0.1,0c0,0,0,0,0,0
							c0,0,0,0,0.1,0c0,0,0.1,0,0.1-0.1c0,0,0,0,0,0c0,0,0,0,0,0c0,0,0.1,0,0.1,0c0,0,0,0,0.1,0.1c0,0,0,0,0.1,0c0,0,0,0,0.1,0
							c0,0,0,0,0,0c0,0,0,0,0,0c0,0,0.1,0,0.1,0c0,0,0.1,0,0.1,0c0,0,0.1,0,0.1,0c0,0,0,0,0,0c0,0,0,0.1,0.1,0.1c0,0,0,0,0.1,0
							c0,0,0,0,0,0c0,0,0,0,0.1,0c0,0,0.1,0,0.1,0c0,0,0,0,0,0c0,0,0,0,0.1,0c0,0,0,0,0,0c0,0,0,0,0,0c0,0,0.1,0,0.1,0c0,0,0,0,0,0
							c0,0,0,0,0.1,0c0,0,0,0,0,0c0.1,0,0.1,0,0.1,0c0,0,0.1,0,0.1,0c0,0,0,0,0,0c0,0,0.1,0,0.1,0c0,0,0,0,0,0c0,0,0,0,0,0
							c0,0,0,0,0,0c-0.1,0-0.1,0.1-0.1,0.1c0,0,0,0.1,0,0.1c0,0,0,0.1,0,0.1l0.1,0.1c0,0,0,0,0,0c0,0,0,0.1,0,0.1c0,0,0,0,0,0.1
							c0,0,0,0,0.1,0h0c0,0,0.1,0,0.1-0.1c0,0,0,0,0,0c0,0,0,0,0.1,0c0,0,0,0,0.1,0c0,0,0,0,0,0c0,0,0,0.1,0,0.1C3-4,3-4,3-4
							c0,0,0,0,0,0c0,0,0,0,0,0l0,0c0,0,0.1,0,0.1,0c0.1,0,0.1,0,0.1,0.1c0,0,0,0,0,0l0,0c0,0,0,0-0.1,0c0,0-0.1,0-0.1,0
							c0,0,0,0,0,0c0,0-0.1,0-0.1,0c0,0,0,0,0,0.1c0,0-0.1,0-0.1,0c0,0-0.1,0-0.1,0.1c-0.1-0.1-0.2,0-0.2,0c0,0,0,0,0,0h0
							c0,0-0.1,0-0.1,0.1c0,0,0,0.1,0.1,0.1h0c0,0,0,0,0,0l0,0c0,0,0.1,0,0.1,0c0,0,0,0,0,0c0,0,0,0,0,0l0,0c0,0,0,0,0.1,0
							c0,0,0,0,0.1,0c0,0,0,0,0,0l0.1,0c0,0,0,0,0.1,0c0,0,0-0.1,0-0.1c0,0,0.1,0,0.1,0.1c0,0,0,0,0,0c0,0,0,0,0.1,0c0,0,0,0,0.1,0
							c0,0,0,0,0,0c0,0,0.1,0,0.2,0c0,0,0,0,0,0c0,0,0,0,0,0c0,0,0,0,0,0c0,0,0,0,0,0l0.1,0c0,0,0,0,0,0c0,0,0,0,0,0c0,0,0,0,0,0
							c0,0,0,0,0,0c0,0,0,0,0,0c0,0,0,0,0,0c0,0,0.1,0,0.1,0c0,0,0,0,0,0c0,0,0,0,0,0.1c0,0,0,0,0.1,0c0,0,0,0,0,0l0.1,0
							c0,0,0,0,0.1,0c0-0.1,0.1-0.1,0-0.2c0,0,0,0,0,0c0,0,0.1,0,0.1,0c0,0,0.1,0,0.1,0c0,0,0,0,0,0c0,0,0,0,0.1,0c0,0,0,0,0,0
							c0,0,0,0,0.1,0c0,0,0,0,0,0c0,0,0.1,0.1,0.1,0c0,0,0,0,0-0.1c0,0,0,0,0,0c0,0,0,0,0,0c0,0,0.1,0,0.1,0c0.1,0,0.1,0,0.1-0.1
							c0,0,0.1,0,0.1,0c0,0,0,0,0,0c0,0,0.1,0,0.1,0c0.8-0.2,1.6-0.4,2.3-0.6c0,0,0,0,0,0c0,0,0,0,0,0c0.1,0,0.3-0.1,0.4-0.1
							c0,0,0,0,0,0c0.2-0.1,0.3-0.1,0.5-0.2c0,0,0,0,0,0c0,0,0,0,0.1,0C8.4-5,8.4-5,8.5-5c0,0,0.1-0.1,0-0.1c0,0,0,0,0-0.1
							c0,0,0,0.1,0,0.1c0,0,0.1,0,0.1,0C8.8-5.2,9-5.2,9.1-5.3c0,0,0,0,0,0c0,0,0,0,0,0c0.1,0,0.2-0.1,0.2-0.1c0,0,0.1,0,0-0.1
							c0,0,0-0.1-0.1-0.1c0,0,0,0,0,0c0,0,0,0,0-0.1c0.1-0.1,0.2-0.1,0.4-0.1c0.1,0,0.1,0,0.2,0c0,0,0.1,0,0.1,0c0,0,0-0.1,0-0.1
							C9.9-6,10-6.1,10-6.1c0,0,0,0,0.2,0c0,0,0.1,0,0.1,0c0,0,0.1,0,0.1,0c0,0,0,0,0.1,0c0,0,0.1,0,0.1-0.1l0,0c0,0,0,0,0-0.1
							c0,0,0-0.1,0-0.1c0,0-0.1,0-0.1,0c0,0,0,0,0,0c0,0,0,0,0-0.1c0,0,0.1,0,0.1,0c0.1,0,0.1,0,0.1,0c0,0,0,0.1,0,0.1
							c0,0,0,0,0.1,0c0,0,0,0,0.1,0c0.1-0.1,0.3-0.2,0.4-0.2c0,0,0-0.1,0-0.1c0,0,0,0,0,0v0c0,0,0,0,0,0c0.1,0,0.1-0.1,0.2-0.1
							c0,0,0.1-0.1,0.1-0.1c0,0,0.1,0,0.1,0c0,0,0.1,0,0.1,0c0.1-0.1,0.3-0.2,0.4-0.3c0,0,0,0,0,0c0,0,0-0.1,0-0.1c0,0,0,0,0,0
							c0,0,0,0,0.1,0c0,0,0.1-0.1,0.1-0.1c0,0,0,0,0,0c0,0,0,0,0,0l0,0c0,0,0,0,0-0.1c0,0,0,0,0.1,0c0.2-0.2,0.4-0.3,0.6-0.5
							c0,0,0,0,0-0.1c0-0.1,0-0.1,0-0.1l0.2-0.1c0.2-0.1,0.2-0.2,0.5-0.3c0,0,0,0,0,0c0,0,0.1,0,0.1,0c0.2-0.2,0.4-0.4,0.6-0.5
							c0,0,0-0.1,0-0.1c0,0,0,0,0-0.1c0,0,0,0,0-0.1c0,0,0-0.1,0-0.1c0,0,0,0-0.1,0l0,0c0.1,0,0.1-0.1,0.2-0.2
							c0.1-0.1,0.2-0.2,0.3-0.2c-0.1,0.1-0.1,0.1-0.1,0.1c-0.1,0-0.1,0.1-0.2,0.2c0,0,0,0.1,0,0.1l0,0.1c0,0,0,0,0.1,0c0,0,0,0,0,0
							c0,0,0,0,0.1,0c0.1-0.1,0.2-0.2,0.4-0.3c0,0,0,0,0-0.1c0,0,0,0,0,0c0,0,0,0,0,0c0,0,0-0.1,0-0.1c0-0.1,0-0.2,0.1-0.3
							c0,0,0,0,0,0c0,0,0,0.1,0.1,0.1c0,0,0.1,0,0.1,0c0.5-0.5,1-1,1.4-1.6c0,0,0-0.1,0-0.1c0,0,0-0.1-0.1-0.1c0,0,0,0,0,0
							c0,0,0.1,0,0.1,0c0-0.1,0.1-0.1,0.1-0.2c0,0,0-0.1,0-0.1c0,0,0,0,0.1,0c0,0,0.1,0,0.1,0c0,0,0,0,0-0.1c0,0,0-0.1,0-0.1
							c0,0,0,0,0,0c0,0,0,0,0,0c0,0,0,0,0,0c0,0,0.1,0,0.1,0l0.1-0.1c0,0,0,0,0,0c0,0,0,0,0,0c0.1-0.1,0.2-0.2,0.3-0.3
							c0,0,0-0.1,0-0.1c0,0,0,0,0,0c0,0,0,0,0,0c0.7-1,1.4-2.1,1.8-3c0,0,0-0.1,0-0.1c0,0-0.1-0.1-0.1-0.1c0,0,0.1,0,0.1,0
							c0,0,0.1,0,0.1,0c0-0.1,0.1-0.2,0.1-0.2c0,0,0,0,0-0.1c0,0,0,0-0.1,0c0,0,0,0-0.1,0c0,0-0.1-0.1-0.2-0.1c0,0,0,0,0-0.1
							c0,0,0,0,0,0c0,0,0.1,0,0.1,0c0,0,0.1,0,0.1,0c0,0,0,0,0,0c0,0,0.1,0,0.1-0.1l0-0.1c0,0,0-0.1,0-0.1c0,0,0,0,0-0.1
							c0,0,0,0-0.1,0c0,0,0,0,0,0c0,0,0.1,0,0.1,0c0,0,0,0,0-0.1c0,0,0-0.1,0-0.1c-0.1-0.1-0.1-0.1,0-0.3c0,0,0,0,0,0
							c0,0,0,0.1,0.1,0.1c0,0,0,0,0,0c0,0,0.1,0,0.1-0.1l0-0.1c0,0,0-0.1,0-0.1c0,0,0,0-0.1,0c0,0,0,0-0.1,0c0,0,0,0-0.1,0
							c0,0,0-0.1,0-0.1c0,0,0-0.1-0.1-0.1c0,0,0,0,0.1,0c0,0,0.1,0.1,0.1,0.1l0,0c0,0,0.1,0,0.1,0c0,0,0.1,0,0.1-0.1l0-0.1
							c0,0,0-0.1,0-0.1l0,0c0,0,0,0,0,0c0.3-0.9,0.5-1.8,0.7-2.8c0,0,0-0.1,0-0.1c0,0,0,0,0,0c0,0,0,0,0-0.1l0-0.1c0,0,0-0.1,0-0.1
							c0,0,0-0.1,0-0.1c0,0,0,0,0-0.1c0,0,0,0,0,0h0c0,0,0.1,0,0.1-0.1l0-0.1c0,0,0-0.1,0-0.1c0,0,0,0,0,0c0,0,0,0,0,0
							c0-0.2,0.1-0.4,0.1-0.6c0,0,0-0.1,0-0.1c0,0-0.1-0.1-0.1-0.1c0,0,0,0,0,0c0,0,0.1,0,0.1-0.1c0,0,0,0,0,0l0-0.1
							c0,0,0-0.1-0.1-0.1c0,0,0-0.1,0-0.1c0,0,0,0,0,0c0,0,0,0,0-0.1l0-0.1c0,0,0,0,0-0.1c0,0,0,0,0-0.1L21.5-23.1z"/>
					</g>
				</g>
				<path id="Fill-35" class="st0" d="M20.7-8.5c0,0.1,0,0.1,0,0.1c0,0,0,0,0,0c0,0,0,0.1,0.1,0.1h0c0,0,0.1,0,0.1-0.1c0,0,0,0,0,0
					c0-0.1,0-0.1,0.1-0.2c0,0,0,0,0,0l0.1,0c0,0,0,0,0,0c0,0,0,0,0,0c0.1,0,0.1-0.1,0.1-0.2c0,0,0,0,0-0.1c0,0,0,0,0-0.1
					c0,0,0,0-0.1,0l-0.1,0c0,0,0,0,0,0c0,0,0,0,0-0.1C21-9,21-9,21-9c-0.1,0-0.2,0-0.2,0.1c0,0.1-0.1,0.1,0,0.3
					C20.7-8.6,20.7-8.6,20.7-8.5"/>
				<path id="Fill-37" class="st0" d="M19.9-10.8c0,0.1,0,0.1,0,0.2c0,0,0,0,0,0c0,0-0.1,0.1-0.1,0.1l0,0c0,0.1,0,0.2,0,0.3l0,0
					c0,0,0,0.1,0.1,0.1c0,0,0,0,0.1,0c0,0,0,0,0,0c0,0,0.1,0,0.1,0c0,0,0.1,0,0.1-0.1c0,0,0-0.1,0-0.1c0,0,0-0.1,0-0.2
					C20.3-10.6,20.3-10.8,19.9-10.8C20-10.8,19.9-10.8,19.9-10.8"/>
			</g>
		</g>
	</g>
	<g id="编组-54备份_1_" transform="translate(45.000000, 9.000000)">
		<text transform="matrix(1 0 0 1 -15.9994 -5.5386)" class="st0 st10 st11">金刚鲸后台</text>
	</g>
</g>
</svg>
